<?xml version="1.0" encoding="utf-8"?>
<!-- Generator: Adobe Illustrator 27.7.0, SVG Export Plug-In . SVG Version: 6.00 Build 0)  -->
<svg version="1.1" id="Calque_1" xmlns="http://www.w3.org/2000/svg" xmlns:xlink="http://www.w3.org/1999/xlink" x="0px" y="0px"
	 viewBox="0 0 48 48" style="enable-background:new 0 0 48 48;" xml:space="preserve">
<style type="text/css">
	.st0{fill:#FFFFFF;}
</style>
<g id="_01_-_PS">
	<g>
		<path class="st0" d="M38,42H10c-2.2,0-4-1.8-4-4V10c0-2.2,1.8-4,4-4h28c2.2,0,4,1.8,4,4v28C42,40.2,40.2,42,38,42z M10,8
			c-1,0-2,1-2,2v28c0,1.1,0.9,2,2,2h28c1.1,0,2-0.9,2-2V10c0-1.1-0.9-2-2-2H10z"/>
	</g>
	<path class="st0" d="M14.8,27.8l-1.4,4.1h-3l5.5-16h3.7l5.8,16h-3.2l-1.5-4.1H14.8z M20.2,25.3c-1.3-3.7-2-5.8-2.4-7.2l0,0
		c-0.4,1.5-1.2,4.1-2.3,7.2H20.2z"/>
	<path class="st0" d="M29.5,26.5c0,1.8,0.9,3.3,2.7,3.3c1,0.1,2-0.5,2.3-1.5h2.9c-0.6,2.4-2.9,3.9-5.3,3.7c-3.9,0-5.5-3-5.5-6
		c0-3.7,1.9-6.4,5.6-6.4c4,0,5.3,3,5.3,5.8c0,0.3,0,0.7,0,1L29.5,26.5z M34.6,24.7c0-1.6-0.7-2.9-2.5-2.9s-2.5,1.2-2.6,2.9H34.6z"/>
</g>
</svg>
