<?xml version="1.0" encoding="utf-8"?>
<!-- Generator: Adobe Illustrator 27.7.0, SVG Export Plug-In . SVG Version: 6.00 Build 0)  -->
<svg version="1.1" id="Calque_1" xmlns="http://www.w3.org/2000/svg" xmlns:xlink="http://www.w3.org/1999/xlink" x="0px" y="0px"
	 viewBox="0 0 48 48" style="enable-background:new 0 0 48 48;" xml:space="preserve">
<style type="text/css">
	.st0{fill:#FFFFFF;}
</style>
<g id="_01_-_PS">
	<g>
		<path class="st0" d="M38,42H10c-2.2,0-4-1.8-4-4V10c0-2.2,1.8-4,4-4h28c2.2,0,4,1.8,4,4v28C42,40.2,40.2,42,38,42z M10,8
			c-1,0-2,1-2,2v28c0,1.1,0.9,2,2,2h28c1.1,0,2-0.9,2-2V10c0-1.1-0.9-2-2-2H10z"/>
	</g>
	<path class="st0" d="M18.2,28.6l-1.5,4.2h-3.1l5.8-16.7h3.9l6,16.7H26l-1.5-4.2C24.5,28.6,18.2,28.6,18.2,28.6z M23.8,26
		c-1.3-3.8-2.1-6.1-2.5-7.5l0,0C20.9,20,20,22.7,18.9,26H23.8z"/>
	<path class="st0" d="M31.4,15.2h3v2.9h-3L31.4,15.2z M31.4,20.4h3v12.4h-3L31.4,20.4z"/>
</g>
</svg>
