<?xml version="1.0" encoding="utf-8"?>
<!-- Generator: Adobe Illustrator 27.7.0, SVG Export Plug-In . SVG Version: 6.00 Build 0)  -->
<svg version="1.1" id="Calque_1" xmlns="http://www.w3.org/2000/svg" xmlns:xlink="http://www.w3.org/1999/xlink" x="0px" y="0px"
	 viewBox="0 0 48 48" style="enable-background:new 0 0 48 48;" xml:space="preserve">
<style type="text/css">
	.st0{fill:none;stroke:#FFFFFF;stroke-width:2;stroke-miterlimit:10;}
	.st1{fill:#FFFFFF;}
</style>
<path class="st0" d="M10,7h28c1.7,0,3,1.3,3,3v28c0,1.7-1.3,3-3,3H10c-1.7,0-3-1.3-3-3V10C7,8.4,8.4,7,10,7z"/>
<path class="st1" d="M13.1,15.7h6.7c3.4,0,5.8,1.9,5.8,5.1c0,3.5-2.6,5.2-5.9,5.2h-3.5v6.4h-3.1C13.1,32.4,13.1,15.7,13.1,15.7z
	 M16.2,23.4h3.1c1.9,0,3-0.8,3-2.6s-1.3-2.6-3-2.6h-3.2v5.2H16.2z"/>
<path class="st1" d="M27.9,23.3c0-1.4,0-2.5,0-3.4h2.9c0,0.3,0.1,1.5,0.1,2.3c0.6-1.6,2.3-2.7,4-2.6v2.9c-2.5,0-4,0.9-4,4.2v5.6h-3
	L27.9,23.3z"/>
</svg>
