<?xml version="1.0" encoding="utf-8"?>
<!-- Generator: Adobe Illustrator 27.7.0, SVG Export Plug-In . SVG Version: 6.00 Build 0)  -->
<svg version="1.1" id="Calque_1" xmlns="http://www.w3.org/2000/svg" xmlns:xlink="http://www.w3.org/1999/xlink" x="0px" y="0px"
	 viewBox="0 0 48 48" style="enable-background:new 0 0 48 48;" xml:space="preserve">
<style type="text/css">
	.st0{fill:#FFFFFF;}
</style>
<g id="_01_-_PS">
	<g>
		<path class="st0" d="M38,42H10c-2.2,0-4-1.8-4-4V10c0-2.2,1.8-4,4-4h28c2.2,0,4,1.8,4,4v28C42,40.2,40.2,42,38,42z M10,8
			c-1.1,0-2,0.9-2,2v28c0,1.1,0.9,2,2,2h28c1.1,0,2-0.9,2-2V10c0-1.1-0.9-2-2-2H10z"/>
	</g>
	<path class="st0" d="M11.8,15.5h6.7c3.4,0,5.8,1.9,5.8,5c0,3.5-2.6,5.2-5.9,5.2h-3.5v6.4h-3.1L11.8,15.5z M14.9,23.2H18
		c1.8,0,2.9-0.7,3-2.4c0.1-1.6-1.3-2.8-2.8-2.8l-3.3,0V23.2z"/>
	<path class="st0" d="M28.6,28.5c0.3,1.1,1.4,1.9,2.6,1.7c1.5,0,2-0.6,2-1.4s-0.5-1.3-2.5-1.8c-3.9-1-4.6-2.1-4.6-3.9
		s1.3-3.7,4.8-3.7s4.8,2,5,3.7H33c-0.1-0.6-0.5-1.5-2.2-1.5c-1.3,0-1.8,0.6-1.8,1.2s0.4,1.1,2.5,1.6c4,0.9,4.7,2.3,4.7,4.1
		c0,2.1-1.6,3.9-5.2,3.9s-5.1-1.8-5.4-4L28.6,28.5z"/>
</g>
</svg>
