<?xml version="1.0" encoding="UTF-8"?><svg id="Calque_2" xmlns="http://www.w3.org/2000/svg" viewBox="0 0 1021.61 158.34"><defs><style>.cls-1{fill:#00000d;}.cls-2{fill:#fff;}.cls-3{fill:none;stroke:#fff;stroke-miterlimit:10;}</style></defs><path class="cls-2" d="m553.56,22.63c5.57,0,8.28,9.8,8.28,15.2v83.27c0,5.41-2.7,15.03-8.28,15.03v2.36h27.7v-2.36c-5.41,0-8.28-9.63-8.28-15.03V37.83c0-7.6,2.87-15.2,8.28-15.2v-2.36h-27.7v2.36Zm-178.53,0c5.24,0,8.11,9.8,8.11,15.03l.68,55.23c0,20.94-9.46,40.2-33.44,40.2-18.92,0-31.75-18.24-31.75-36.99v-58.44c0-5.24,2.87-15.03,8.11-15.03v-2.36h-27.87v2.36c5.57,0,8.28,9.8,8.28,15.03v59.79c0,35.64,22.97,42.9,42.9,42.9s38.34-16.05,38.34-47.8l.68-54.89c0-5.24,2.7-15.03,8.11-15.03v-2.36h-22.12v2.36Zm155.22,98.47l-8.95-83.27c-.68-8.95-.51-15.2,4.9-15.2v-2.36h-19.76l-33.95,101.84-38.51-99.99c-.51-1.01-1.35-1.86-3.72-1.86h-10.64v2.36c2.03,0,2.53,1.35,3.21,3.21l3.04,9.63-6.42,85.63c-.68,7.94-2.7,15.03-8.11,15.03v2.36h20.1v-2.36c-5.07,0-5.91-4.05-5.57-15.03l3.21-75.33,26.69,67.9c6.08,17.23,12.67,24.83,12.67,24.83h3.21l36.82-108.26,9.96,92.05c.68,6.25-1.35,13.85-6.59,13.85v2.36h26.69v-2.36c-5.57,0-7.6-9.29-8.28-15.03Zm-282.23,13.01c-15.71,0-21.45-5.74-21.45-16.38V37.83c0-5.4,2.87-15.03,8.11-15.03v-2.53h-28.21v2.53c5.57,0,8.28,9.63,8.28,15.03v83.27c0,5.41-2.7,15.03-8.28,15.03v2.36h74.99v-25.16h-2.87c0,7.6,0,20.77-30.57,20.77ZM676.69,22.63c5.23,0,8.11,9.8,8.11,15.2l1.01,81.58-67.9-97.28c-.51-.68-1.52-1.86-3.55-1.86h-15.03v2.36c6.08,0,6.92,6.59,9.12,10.13l-.68,88.33c0,5.41-2.7,15.03-8.28,15.03v2.36h21.79v-2.36c-5.41,0-8.11-9.63-8.11-15.03l-.34-82.42c12.84,19.59,37.66,51.34,53.37,75.67,8.11,12.5,19.59,24.15,19.59,24.15h3.38l.84-100.66c0-5.4,2.7-15.2,8.28-15.2v-2.36h-21.62v2.36Zm308.41-2.36v2.36c5.91,0,6.25,6.08.17,15.03l-19.42,28.37-19.93-31.42c-4.73-7.94-1.69-11.99,3.38-11.99v-2.36h-30.23v2.36c5.41,0,8.44,6.25,13.51,15.03l24.15,38.68v44.76c0,5.24-2.7,15.03-8.11,15.03v2.36h28.04v-2.36c-5.57,0-8.11-9.8-8.11-15.03v-50.84l21.96-32.6c7.09-9.8,10.81-15.03,16.38-15.03v-2.36h-21.79Zm-187.14,102.86l-34.29-96.95c-1.18-3.04-1.69-5.91-7.43-5.91h-7.43v2.03c.68,0,2.37,1.35,3.21,3.88l-34.29,96.44c-2.03,5.74-5.4,13.51-10.81,13.51v2.36h23.14v-2.36c-6.25,0-9.29-3.72-6.42-12.16l5.4-16.21h51.18l5.74,18.07c1.69,6.25-2.03,10.3-7.26,10.3v2.36h30.06v-2.36c-5.57,0-8.78-7.26-10.81-13.01Zm-67.05-20.1l22.13-65.36c.68-1.86,2.7-2.03,3.38.17l21.96,65.19h-47.46Zm142.72-19.59c11.48-7.09,23.14-25.17,23.14-36.48,0-16.89-13.34-26.69-30.57-26.69h-45.94v2.36c5.57,0,8.28,9.8,8.28,15.2v83.27c0,5.41-2.7,15.03-8.28,15.03v2.36h28.2v-2.36c-5.23,0-8.11-9.63-8.11-15.03v-19.09c3.04-1.01,14.69-7.09,21.45-11.15,16.55,37.33,28.04,47.8,56.58,47.8h3.88v-2.37c-23.81,0-40.2-30.74-48.64-52.86Zm-33.27,12.83v-59.79c0-5.4,4.56-10.13,9.8-10.13h11.15c15.2,0,22.13,10.98,22.13,20.44,0,21.45-24.66,41.21-43.07,49.49Z"/><path class="cls-2" d="m83.6,83.64c0,.08-.02.16-.03.25-.03.23-.08.46-.15.69-.02.08-.05.16-.07.24-.15.46-.37.91-.66,1.34-.04.06-.09.13-.13.19-.06.08-.12.17-.19.25-.03.03-.05.06-.08.1,0-.02,0-.03-.01-.05-.02-.12-.04-.24-.07-.36-.02-.08-.04-.17-.07-.25h0c-.05-.17-.1-.33-.16-.49-.13-.34-.29-.67-.48-.98-.79-1.28-2.06-2.26-3.68-2.67-.21-.05-.43-.11-.64-.16-1.07-.26-2.14-.48-3.23-.67,0,0,0,0-.01,0-2.89-.5-5.85-.74-8.84-.72-.19,0-.38,0-.57,0-4.51-1.37-19.91-4.68-42.82,4.69,0,0,14.2-1.5,25.18-1.23-2.43.93-4.83,2.06-7.18,3.39-7.4,4.18-13.38,9.84-17.76,16.33-3.59-1.2-6.98-2.77-10.09-4.66-2.87-1.75-3.47-5.23-1.36-7.84,7.57-9.39,19.22-16.43,33.04-18.84,3.59-.62,7.14-.9,10.62-.86,4.9.05,9.64.73,14.11,1.97.36.1.71.2,1.06.3,2.86.86,5.6,1.94,8.19,3.24.89,1.33,1.87,2.61,2.97,3.82.95,1.06,1.99,2.07,3.12,3.01Z"/><path class="cls-1" d="m65.89,80.8c-4.9.89-9.12,2.08-12.74,3.42-.83-.11-1.73-.19-2.67-.26,5.06-1.87,10.26-2.91,15.4-3.16Z"/><path class="cls-1" d="m65.89,80.8s-.93,5.54-10.83,3.72c6.11-2.49,10.83-3.72,10.83-3.72Z"/><path class="cls-2" d="m95.87,44.32c-2.48-13.83-10.06-25.36-20.26-32.76-2.84-2.06-6.66-1.37-8.61,1.54-7,10.48-10.1,23.93-7.63,37.76,1.54,8.6,5.06,16.32,9.96,22.7.98,1.29,2.02,2.52,3.11,3.69,1.4,1.5,2.88,2.91,4.43,4.21.1.09.21.17.31.26.8.66,1.62,1.3,2.46,1.91.59.43,1.21.73,1.86.93.49.15.99.23,1.48.26.12,0,.25,0,.38,0,.31,0,.61-.03.91-.09.22-.04.43-.09.64-.15.12-.03.23-.07.34-.11.3-.11.58-.24.86-.39.27-.15.53-.32.77-.51.51-.4.97-.89,1.36-1.47.7-1.04,1.35-2.11,1.97-3.21.13-.23.26-.46.38-.69,0,0,0,0,0-.01,5.31-9.81,7.45-21.68,5.27-33.85Zm-11.54,39.9c-.24-.19-.48-.39-.72-.59-1.13-.95-2.17-1.96-3.12-3.01-1.1-1.21-2.08-2.49-2.97-3.82-11.06-16.58-6.43-40.66-6.43-40.66,2.89,16.29,9.28,34.36,12.09,42.99.9,2.76,1.43,4.56,1.37,5.03-.07.02-.15.04-.22.06Z"/><path class="cls-2" d="m107.91,17.6c-1.62-2.87-5.13-3.73-7.9-1.93-3.57,2.32-6.87,5.16-9.76,8.45,3.27,5.37,5.63,11.48,6.82,18.12,2.34,13.04-.29,25.74-6.47,35.93,0,0,0,0,0,.01-.15.24-.29.48-.45.72h0c-.23.37-.46.73-.7,1.09-.79,1.18-1.89,2-3.11,2.42-.28.1-.57.17-.87.22-.33.06-.66.09-1,.09.21.25.43.47.67.67.18.16.37.3.57.42,0,0,.01.01.02.01.12.08.25.16.38.23,1.71.91,3.83.86,5.63-.31.27-.17.53-.35.79-.52h0c.38-.26.76-.53,1.13-.8,3.3-2.39,6.33-5.24,8.98-8.49,4.6-5.63,8.09-12.45,9.97-20.14,3.17-12.97,1.13-25.89-4.71-36.21Zm-12.04,54.65s2.7-23.39,10.36-40.27c0,0-.74,24.04-10.36,40.27Z"/><path class="cls-2" d="m85.02,86.27c-.12-.39-.28-.76-.48-1.12-.08-.15-.17-.3-.27-.44-.09-.13-.18-.26-.28-.38-.13-.16-.26-.31-.41-.46-.75-.75-1.71-1.31-2.83-1.6-1.28-.33-2.57-.61-3.88-.83-.97-.17-1.94-.3-2.92-.41,0,0,0,0-.01,0-2.64-.29-5.33-.37-8.04-.24h0s-4.72,1.23-10.83,3.72c-7.12,2.9-16.12,7.49-21.79,13.83.17-.32,4.8-8.55,19.87-14.13,3.62-1.34,7.83-2.53,12.74-3.42-5.14.25-10.34,1.29-15.4,3.16-2.66.98-5.28,2.19-7.84,3.63-12.22,6.91-20.6,17.85-24.21,29.9-1,3.35.9,6.72,4.29,7.59,12.18,3.12,25.88,1.6,38.1-5.31,7.23-4.09,13.12-9.59,17.47-15.9,0,0,0,0,0,0,1.26-1.83,2.39-3.72,3.38-5.67.24-.46.46-.92.68-1.38.03-.07.06-.14.1-.21.89-1.89,1.65-3.83,2.28-5.8.1-.31.2-.62.29-.93.14-.48.23-.95.26-1.42.05-.76-.05-1.5-.27-2.19Zm-42.1,26.49c.4-.3,24.76-18.3,37.62-25.23,0,0,0,0,0,0,.54-.29,1.06-.56,1.56-.82.05.05.09.1.13.16-.61,1.33-1.3,2.6-2.08,3.81-10.82,16.84-36.8,22-37.23,22.08Z"/><path class="cls-2" d="m158.23,90.6c-7.87-9.14-19.73-15.81-33.63-17.77-7.65-1.08-15.11-.62-21.95,1.12-4.44,1.13-8.63,2.8-12.44,4.93-.02,0-.04.02-.06.04h0c-.95.53-1.87,1.09-2.78,1.68-.29.19-.56.4-.8.62h0c-.46.43-.83.91-1.1,1.42-.13.25-.24.5-.33.76-.07.21-.13.43-.17.64-.03.17-.06.35-.07.52-.01.09-.02.18-.02.27-.01.47.05.94.17,1.4h0c.18.69.52,1.37,1.01,2l1.16.76c.39-.53.87-1,1.44-1.38.5-.33,1.06-.6,1.68-.79,1.1-.32,2.21-.61,3.33-.86,2.56-.56,5.18-.93,7.85-1.08,6.33-.37,12.88.44,19.28,2.53.58.19,1.16.39,1.74.6,0,0,0,0,0,0,2.02.73,4.02,1.6,5.99,2.6,6.76,3.42,12.47,8.05,16.95,13.43,4.19-1.39,8.09-3.27,11.62-5.58,2.81-1.84,3.3-5.34,1.11-7.88Zm-43.45-5.78c-6.4-2.09-12.95-2.9-19.28-2.53,7.6-2.15,28.62-6.56,49.69,2.73,0,0-19.09-2.03-30.41-.2Z"/><path class="cls-2" d="m84.79,88.61c-.58.17-1.11.42-1.59.72.77-3.19,3.85-5.08,7.09-4.3,1.83.44,3.64.99,5.42,1.65-3.74.23-7.41.88-10.92,1.92Z"/><path class="cls-2" d="m131.53,145.01c-.62,3.42-3.8,5.49-7.18,4.67-12.12-2.93-23.49-10.66-31.14-22.42-5.61-8.61-8.43-18.17-8.66-27.49,4.64,10.28,12.98,19.31,24.23,25.01,7.53,3.81,15.48,5.68,23.22,5.81.55,4.88.38,9.74-.47,14.42Z"/><path class="cls-2" d="m85.21,101.19c0,.11-.01.23-.02.34-.06,1.02-.16,2.04-.29,3.07-.99,7.82-3.81,15.66-8.57,22.81-7.77,11.69-19.22,19.3-31.36,22.12-3.38.78-6.54-1.32-7.13-4.74-.87-5.11-.94-10.42-.15-15.73,7.26-.61,14.59-2.79,21.45-6.67,8.21-4.64,14.69-11.1,19.15-18.5,0,0,0,0,0,0,1.21-2,2.27-4.07,3.17-6.19.24-.56.47-1.13.69-1.7.1-.25.19-.5.29-.76.33-.91.63-1.82.91-2.75.34-1.13.35-2.26.08-3.29-.03-.11-.06-.23-.1-.34-.23-.73-.61-1.4-1.1-1.98-.04-.05-.09-.1-.13-.16-.11-.13-.23-.25-.36-.36-.1-.09-.2-.18-.31-.27-.52-.42-1.11-.76-1.78-1.01.74.1,1.44.34,2.07.69.14.08.27.16.41.25h0c.09.06.19.13.28.2.05.03.1.07.14.11.49.4.91.89,1.25,1.45.19.31.35.64.48,1,.13.36.24.75.31,1.15.05.29.1.59.14.89.52,3.39.68,6.87.47,10.37Z"/><path class="cls-2" d="m148.17,116.55c-4.22-11.72-13.12-22.18-25.62-28.52,0,0,0,0,0,0-.01,0-.02-.01-.03-.02-2.54-1.28-5.12-2.35-7.73-3.2-6.4-2.09-12.95-2.9-19.28-2.53-.61.03-1.23.08-1.84.14-2.3.22-4.57.59-6.78,1.12-.39.09-.77.19-1.15.29-.01,0-.03,0-.04.01-.24.06-.48.13-.72.2-.14.04-.29.08-.43.12-.07.02-.15.04-.22.06-.12.03-.23.07-.34.11-.19.07-.38.15-.56.23-.15.07-.3.15-.45.23-.36.21-.7.45-1,.72-.08.08-.17.16-.24.24-.1.1-.2.2-.29.31-.09.1-.17.2-.24.3-.26.36-.48.74-.65,1.14.54-.29,1.06-.56,1.56-.82.05.05.09.1.13.16-.61,1.33-1.3,2.6-2.08,3.81.06.4.16.79.3,1.19.09.26.19.53.29.79h0c.43,1.12.9,2.23,1.41,3.32.07.16.15.31.22.46h0c.03.07.06.12.08.17.64,1.32,1.35,2.63,2.11,3.9h0s0,0,0,0c.2.34.41.67.62,1,.3.47.61.94.92,1.4,0,0,0,0,0,0,4.83,7.1,11.6,13.22,20,17.47,12.52,6.34,26.24,7.33,38.19,3.79,3.33-.98,5.04-4.37,3.87-7.64Zm-61.92-28.08h0c-.06-.08-.13-.15-.19-.23l1.16.76c2.11,1.18,7.63,4.42,16.61,10.66,11.58,8.05,19.11,12.94,19.34,13.09-.46-.1-30.02-6.63-36.92-24.28Z"/><path class="cls-2" d="m83.12,89.7c-.6,3.28-.85,6.66-.77,10.07-.52-1.16-1-2.34-1.43-3.53-.97-2.69.03-5.47,2.28-6.92-.03.12-.06.25-.08.37Z"/><path class="cls-2" d="m86.57,81.21h0c-.02.15-.04.29-.06.43-.04.26-.1.52-.17.77-.15.51-.36.98-.63,1.41,0,0-.01.02-.02.02-.13.22-.28.42-.44.61-.11.14-.23.27-.36.39-.11.11-.23.22-.35.31-.54.44-1.17.78-1.85.99-.09.03-.18.05-.27.08-.07.02-.14.03-.21.05-.15.03-.3.06-.45.08-.18.02-.36.03-.55.04-.46.01-.93-.03-1.4-.13-4.8-1.04-9.5-2.87-13.9-5.44h0s0,0,0,0h0s0,0,0,0c-.26-.16-.52-.31-.79-.47-3.96-2.42-7.65-5.44-10.94-9.03-1.6-1.75-3.1-3.64-4.49-5.66-7.56-11.01-10.23-23.82-8.41-35.53.51-3.26,3.48-5.3,6.7-4.6,2.47.54,4.9,1.28,7.29,2.22-1.16,6.11-1.23,12.58-.06,19.14,1.85,10.34,6.56,19.4,13.08,26.4,1.32,1.41,2.71,2.75,4.17,3.99.97.83,1.98,1.62,3.01,2.36,1.54,1.12,3.37,1.43,5.03,1.01.95,1.06,1.99,2.07,3.12,3.01.24.2.48.4.72.59.07-.02.15-.04.22-.06.06-.47-.47-2.27-1.37-5.03.33-.31.62-.67.89-1.06,1.08-1.62,2.08-3.32,2.97-5.08.08,2.78-.07,5.53-.46,8.22Z"/><path class="cls-1" d="m82.37,86.58c-.04.09-.08.19-.13.29-.04-.05-.09-.1-.13-.16.06-.03.11-.06.17-.08.03-.02.06-.03.09-.05Z"/><path class="cls-3" d="m114.78,84.82c-.4.06-.78.13-1.16.21"/><path class="cls-3" d="m95.5,82.29c-1.91.54-2.97.94-2.97.94"/><path class="cls-1" d="m84.54,84.17c-.02.14-.09.16-.22.06.07-.02.15-.04.22-.06Z"/></svg>