<?xml version="1.0" encoding="utf-8"?>
<!-- Generator: Adobe Illustrator 27.7.0, SVG Export Plug-In . SVG Version: 6.00 Build 0)  -->
<svg version="1.1" id="Calque_1" xmlns="http://www.w3.org/2000/svg" xmlns:xlink="http://www.w3.org/1999/xlink" x="0px" y="0px"
	 viewBox="0 0 48 48" style="enable-background:new 0 0 48 48;" xml:space="preserve">
<style type="text/css">
	.st0{fill:#FFFFFF;}
</style>
<g id="_01_-_PS">
	<g>
		<path class="st0" d="M38,42H10c-2.2,0-4-1.8-4-4V10c0-2.2,1.8-4,4-4h28c2.2,0,4,1.8,4,4v28C42,40.2,40.2,42,38,42z M10,8
			c-1,0-2,1-2,2v28c0,1.1,0.9,2,2,2h28c1.1,0,2-0.9,2-2V10c0-1.1-0.9-2-2-2H10z"/>
	</g>
	<path class="st0" d="M18.3,16v16.7h-3.1V16H18.3z"/>
	<path class="st0" d="M32.8,15v14.2c0,1.1,0,2.3,0,3.4H30c-0.1-0.5-0.1-1-0.1-1.5c-0.7,1.1-1.8,1.8-3.7,1.8C23,33,21,30.4,21,26.6
		s2.1-6.6,5.6-6.6c1.9,0,2.9,0.7,3.2,1.3V15H32.8z M24.1,26.5c0,2.6,1.1,4,2.9,4c2.5,0,2.9-2,2.9-4.1c0-2.3-0.4-4-2.8-4
		C25.2,22.4,24.1,23.9,24.1,26.5z"/>
</g>
</svg>
